<?xml version="1.0" standalone="no"?>
<!DOCTYPE svg PUBLIC "-//W3C//DTD SVG 20010904//EN"
 "http://www.w3.org/TR/2001/REC-SVG-20010904/DTD/svg10.dtd">
<svg version="1.0" xmlns="http://www.w3.org/2000/svg"
 width="800.000000pt" height="800.000000pt" viewBox="0 0 800.000000 800.000000"
 preserveAspectRatio="xMidYMid meet">
<metadata>
Created by potrace 1.14, written by Peter Selinger 2001-2017
</metadata>
<g transform="translate(0.000000,800.000000) scale(0.100000,-0.100000)"
fill="#000000" stroke="none">
<path d="M0 4000 l0 -4000 4000 0 4000 0 0 4000 0 4000 -4000 0 -4000 0 0
-4000z m3261 1555 c398 -552 727 -1004 730 -1005 4 0 334 452 734 1005 l727
1005 1059 0 1059 0 0 -720 0 -720 -275 0 -275 0 0 -1115 0 -1115 275 0 275 0
0 -720 0 -720 -1345 0 -1345 0 0 720 0 720 290 0 290 0 0 720 c0 396 -2 720
-4 720 -2 0 -334 -448 -736 -996 -403 -547 -736 -991 -740 -987 -5 4 -328 449
-720 988 -392 539 -716 984 -721 990 -5 5 -9 -286 -9 -713 l0 -722 290 0 290
0 0 -720 0 -720 -1345 0 -1345 0 0 720 0 720 270 0 270 0 0 1115 0 1115 -270
0 -270 0 0 720 0 720 1058 0 1059 0 724 -1005z"/>
</g>
</svg>
